<svg xmlns="http://www.w3.org/2000/svg" width="242.8" height="35" viewBox="0 0 242.8 35"><rect class="svg__rect" x="0" y="0" width="69.19" height="35" fill="#621DAD"/><rect class="svg__rect" x="67.19" y="0" width="175.61" height="35" fill="#EA4560"/><path class="svg__text" d="M15.69 22L14.22 22L14.22 13.47L16.14 13.47L18.60 20.01L21.06 13.47L22.97 13.47L22.97 22L21.49 22L21.49 19.19L21.64 15.43L19.12 22L18.06 22L15.55 15.43L15.69 19.19L15.69 22ZM30.17 22L27.71 22L27.71 13.47L30.23 13.47Q31.36 13.47 32.24 13.97Q33.11 14.48 33.59 15.40Q34.07 16.33 34.07 17.52L34.07 17.52L34.07 17.95Q34.07 19.16 33.59 20.08Q33.11 21.00 32.21 21.50Q31.32 22 30.17 22L30.17 22ZM29.19 14.66L29.19 20.82L30.16 20.82Q31.33 20.82 31.95 20.09Q32.57 19.36 32.59 17.99L32.59 17.99L32.59 17.52Q32.59 16.13 31.98 15.40Q31.38 14.66 30.23 14.66L30.23 14.66L29.19 14.66ZM40.02 22L38.54 22L38.54 13.47L40.02 13.47L40.02 17.02L43.84 17.02L43.84 13.47L45.31 13.47L45.31 22L43.84 22L43.84 18.21L40.02 18.21L40.02 22ZM55.41 22L50.05 22L50.05 13.47L51.54 13.47L51.54 20.82L55.41 20.82L55.41 22Z" fill="#DDB95B"/><path class="svg__text" d="M83.76 22L81.38 22L81.38 13.60L83.76 13.60L83.76 16.76L87.00 16.76L87.00 13.60L89.37 13.60L89.37 22L87.00 22L87.00 18.72L83.76 18.72L83.76 22ZM94.10 17.80L94.10 17.80Q94.10 16.55 94.71 15.55Q95.31 14.56 96.37 14.00Q97.44 13.43 98.77 13.43L98.77 13.43Q100.10 13.43 101.16 14.00Q102.23 14.56 102.83 15.55Q103.44 16.55 103.44 17.80L103.44 17.80Q103.44 19.05 102.83 20.04Q102.23 21.04 101.16 21.60Q100.10 22.17 98.77 22.17L98.77 22.17Q97.44 22.17 96.37 21.60Q95.31 21.04 94.71 20.04Q94.10 19.05 94.10 17.80ZM96.50 17.80L96.50 17.80Q96.50 18.51 96.80 19.05Q97.10 19.60 97.62 19.90Q98.14 20.20 98.77 20.20L98.77 20.20Q99.41 20.20 99.92 19.90Q100.44 19.60 100.74 19.05Q101.04 18.51 101.04 17.80L101.04 17.80Q101.04 17.09 100.74 16.54Q100.44 16 99.92 15.70Q99.41 15.40 98.77 15.40L98.77 15.40Q98.13 15.40 97.62 15.70Q97.10 16 96.80 16.54Q96.50 17.09 96.50 17.80ZM107.74 17.80L107.74 17.80Q107.74 16.54 108.34 15.54Q108.93 14.55 109.99 13.99Q111.04 13.43 112.36 13.43L112.36 13.43Q113.51 13.43 114.43 13.84Q115.36 14.25 115.97 15.02L115.97 15.02L114.46 16.39Q113.65 15.40 112.48 15.40L112.48 15.40Q111.79 15.40 111.26 15.70Q110.73 16 110.43 16.54Q110.14 17.09 110.14 17.80L110.14 17.80Q110.14 18.51 110.43 19.05Q110.73 19.60 111.26 19.90Q111.79 20.20 112.48 20.20L112.48 20.20Q113.65 20.20 114.46 19.22L114.46 19.22L115.97 20.58Q115.36 21.35 114.44 21.76Q113.51 22.17 112.36 22.17L112.36 22.17Q111.04 22.17 109.99 21.61Q108.93 21.05 108.34 20.05Q107.74 19.06 107.74 17.80ZM122.86 22L120.51 22L120.51 13.60L122.86 13.60L122.86 17.09L126.11 13.60L128.73 13.60L125.30 17.32L128.91 22L126.15 22L123.75 18.95L122.86 19.90L122.86 22ZM139.76 22L133.02 22L133.02 13.60L139.61 13.60L139.61 15.44L135.37 15.44L135.37 16.85L139.10 16.85L139.10 18.63L135.37 18.63L135.37 20.17L139.76 20.17L139.76 22ZM146.69 18.95L143.49 13.60L146.00 13.60L147.99 16.94L149.98 13.60L152.28 13.60L149.07 18.99L149.07 22L146.69 22L146.69 18.95ZM169.73 22L163.34 22L163.34 13.60L165.72 13.60L165.72 20.11L169.73 20.11L169.73 22ZM180.89 22L174.14 22L174.14 13.60L180.74 13.60L180.74 15.44L176.50 15.44L176.50 16.85L180.23 16.85L180.23 18.63L176.50 18.63L176.50 20.17L180.89 20.17L180.89 22ZM187.11 22L184.68 22L188.39 13.60L190.74 13.60L194.45 22L191.99 22L191.32 20.37L187.77 20.37L187.11 22ZM189.55 15.93L188.46 18.61L190.63 18.61L189.55 15.93ZM198.18 17.80L198.18 17.80Q198.18 16.54 198.78 15.54Q199.37 14.55 200.44 13.99Q201.51 13.43 202.85 13.43L202.85 13.43Q204.03 13.43 204.97 13.83Q205.91 14.22 206.53 14.97L206.53 14.97L205.02 16.33Q204.17 15.40 203.00 15.40L203.00 15.40Q202.98 15.40 202.98 15.40L202.98 15.40Q201.90 15.40 201.24 16.06Q200.58 16.71 200.58 17.80L200.58 17.80Q200.58 18.50 200.88 19.04Q201.18 19.59 201.72 19.89Q202.26 20.20 202.95 20.20L202.95 20.20Q203.64 20.20 204.24 19.93L204.24 19.93L204.24 17.62L206.33 17.62L206.33 21.10Q205.61 21.61 204.68 21.89Q203.75 22.17 202.81 22.17L202.81 22.17Q201.49 22.17 200.43 21.61Q199.37 21.05 198.78 20.05Q198.18 19.06 198.18 17.80ZM211.26 18.26L211.26 18.26L211.26 13.60L213.64 13.60L213.64 18.19Q213.64 20.20 215.23 20.20L215.23 20.20Q216.81 20.20 216.81 18.19L216.81 18.19L216.81 13.60L219.16 13.60L219.16 18.26Q219.16 20.13 218.12 21.15Q217.08 22.17 215.21 22.17L215.21 22.17Q213.33 22.17 212.29 21.15Q211.26 20.13 211.26 18.26ZM230.99 22L224.24 22L224.24 13.60L230.83 13.60L230.83 15.44L226.60 15.44L226.60 16.85L230.33 16.85L230.33 18.63L226.60 18.63L226.60 20.17L230.99 20.17L230.99 22Z" fill="#8FB8E9" x="80.19"/></svg>